<svg id="LOGO_white" data-name="LOGO white" xmlns="http://www.w3.org/2000/svg" width="283.75" height="139" viewBox="0 0 283.75 139">
  <defs>
    <style>
      .cls-1 {
        fill: #fefefe;
      }

      .cls-1, .cls-2 {
        fill-rule: evenodd;
      }

      .cls-2 {
        fill: none;
        stroke: #fff;
        stroke-width: 7px;
      }
    </style>
  </defs>
  <path id="yocoach" class="cls-1" d="M83.234,77.6L76.9,60.314H72.332L65.994,77.5,59.656,60.314h-6.49L62.952,85.03h5.476l5.932-15.922L80.445,85.03h5.527l9.735-24.717H89.521Zm37.571-5.56q0-5.762-2.966-9.048a10.348,10.348,0,0,0-8.087-3.285,12.164,12.164,0,0,0-6.262,1.617,11.041,11.041,0,0,0-4.285,4.549A14.387,14.387,0,0,0,97.684,72.6q0,5.965,3.524,9.4t9.608,3.437a16.706,16.706,0,0,0,5.248-.859A13.323,13.323,0,0,0,120.4,82.3l-1.826-4.347a11.978,11.978,0,0,1-7.5,2.628A7.121,7.121,0,0,1,106,78.914a7.669,7.669,0,0,1-2.079-5.105h16.884V72.04Zm-10.9-7.885a5.026,5.026,0,0,1,3.955,1.592,7.2,7.2,0,0,1,1.521,4.676H103.921a7.85,7.85,0,0,1,1.9-4.65,5.387,5.387,0,0,1,4.082-1.617h0ZM135.763,77.8l-7-17.438h-6.693L132.416,84.07,127.9,94.129h6.388L149.2,60.364h-6.236Zm26.771-18.1a21.788,21.788,0,0,0-10.6,3.033l1.775,4.347a20.921,20.921,0,0,1,4.234-1.9,13.674,13.674,0,0,1,4.132-.682,4.937,4.937,0,0,1,3.625,1.112,5.069,5.069,0,0,1,1.091,3.639v1.163h-1.268a41.458,41.458,0,0,0-8.67.708,8.389,8.389,0,0,0-4.538,2.274,6.227,6.227,0,0,0-1.4,4.3,7,7,0,0,0,1.166,3.943,8.014,8.014,0,0,0,3.195,2.78,9.974,9.974,0,0,0,4.512,1.011,8.163,8.163,0,0,0,4.285-1.112,6.611,6.611,0,0,0,2.713-3.083V85.03h6.033V70.018q0-5.256-2.535-7.784t-7.758-2.527h0Zm-1.47,21.179a4,4,0,0,1-2.839-1.036,3.458,3.458,0,0,1-1.116-2.654,2.7,2.7,0,0,1,.811-2.072,5.13,5.13,0,0,1,2.688-1.062,35.087,35.087,0,0,1,5.273-.3h0.913V74.82a6.112,6.112,0,0,1-1.6,4.372,5.42,5.42,0,0,1-4.132,1.693h0Zm31.081-8.694L203.3,60.364h-7.707L185.6,71.13V49.4h-6.338V85.03H185.6V73.759L196.252,85.03h7.86ZM216.128,77.8l-7-17.438h-6.693L212.782,84.07l-4.513,10.059h6.389l14.907-33.764h-6.237Zm26.772-18.1a21.788,21.788,0,0,0-10.6,3.033l1.775,4.347a20.889,20.889,0,0,1,4.233-1.9,13.685,13.685,0,0,1,4.133-.682,4.937,4.937,0,0,1,3.625,1.112,5.069,5.069,0,0,1,1.09,3.639v1.163h-1.267a41.475,41.475,0,0,0-8.671.708,8.4,8.4,0,0,0-4.538,2.274,6.231,6.231,0,0,0-1.394,4.3,7,7,0,0,0,1.166,3.943,8.011,8.011,0,0,0,3.194,2.78,9.981,9.981,0,0,0,4.513,1.011,8.165,8.165,0,0,0,4.285-1.112,6.6,6.6,0,0,0,2.712-3.083V85.03h6.034V70.018q0-5.256-2.535-7.784T242.9,59.707h0Zm-1.47,21.179a4.006,4.006,0,0,1-2.84-1.036,3.458,3.458,0,0,1-1.115-2.654,2.7,2.7,0,0,1,.811-2.072,5.123,5.123,0,0,1,2.687-1.062,35.111,35.111,0,0,1,5.274-.3h0.912V74.82a6.111,6.111,0,0,1-1.6,4.372,5.422,5.422,0,0,1-4.132,1.693h0Zm31.081-8.694,11.155-11.828h-7.707L265.97,71.13V49.4h-6.338V85.03h6.338V73.759L276.618,85.03h7.859Z" transform="translate(-0.719)"/>
  <path id="ARC" class="cls-2" d="M4.225,135.734c0-72.7,59.117-131.629,132.042-131.629" transform="translate(-0.719)"/>
  <path id="LINE" class="cls-2" d="M42.253,2.105L84.507,44.226" transform="translate(-0.719)"/>
</svg>
